<?xml version="1.0" encoding="iso-8859-1"?>
<!-- Generator: Adobe Illustrator 16.0.0, SVG Export Plug-In . SVG Version: 6.00 Build 0)  -->
<!DOCTYPE svg PUBLIC "-//W3C//DTD SVG 1.1//EN" "http://www.w3.org/Graphics/SVG/1.1/DTD/svg11.dtd">
<svg version="1.1" id="Capa_1" xmlns="http://www.w3.org/2000/svg" xmlns:xlink="http://www.w3.org/1999/xlink" x="0px" y="0px"
	 width="83.816px" height="83.816px" viewBox="0 0 83.816 83.816" style="enable-background:new 0 0 83.816 83.816;"
	 xml:space="preserve">
<g>
	<g>
		<path d="M41.908,0C18.762,0,0,18.763,0,41.909c0,23.145,18.762,41.908,41.908,41.908c23.145,0,41.908-18.763,41.908-41.908
			C83.816,18.763,65.053,0,41.908,0z M38.327,70.771c-6.755,0-12.25-5.496-12.25-12.25c0-5.154,3.152-9.67,7.92-11.463V17.322
			c0-0.552,0.447-1,1-1h6.667c0.553,0,1,0.448,1,1v1.699h4.232c0.554,0,1,0.448,1,1v3c0,0.552-0.446,1-1,1h-0.739v2
			c0,0.552-0.447,1-1,1h-2.493v1.191h2.493c0.553,0,1,0.448,1,1v3c0,0.552-0.447,1-1,1h-2.493v13.849
			c4.764,1.793,7.913,6.309,7.913,11.461C50.577,65.275,45.082,70.771,38.327,70.771z"/>
		<path d="M38.327,52.729c-3.193,0-5.791,2.598-5.791,5.793c0,3.192,2.598,5.791,5.791,5.791s5.792-2.599,5.792-5.791
			C44.119,55.326,41.52,52.729,38.327,52.729z"/>
	</g>
</g>
<g>
</g>
<g>
</g>
<g>
</g>
<g>
</g>
<g>
</g>
<g>
</g>
<g>
</g>
<g>
</g>
<g>
</g>
<g>
</g>
<g>
</g>
<g>
</g>
<g>
</g>
<g>
</g>
<g>
</g>
</svg>
