<?xml version="1.0" encoding="iso-8859-1"?>
<!-- Generator: Adobe Illustrator 19.0.0, SVG Export Plug-In . SVG Version: 6.00 Build 0)  -->
<svg version="1.1" id="Capa_1" xmlns="http://www.w3.org/2000/svg" xmlns:xlink="http://www.w3.org/1999/xlink" x="0px" y="0px"
	 viewBox="0 0 490 490" style="enable-background:new 0 0 490 490;" xml:space="preserve">
<g>
	<path d="M245,490L245,490c-8.3,0-16.7-5.2-18.8-13.6l-35.4-100.1l-95.9,45.9c-7.3,4.2-16.7,2.1-22.9-4.2
		c-6.3-6.3-8.3-15.6-4.2-22.9l45.9-95.9L13.6,263.8C5.2,260.6,0,253.3,0,245s5.2-16.7,13.6-18.8l100.1-35.4L67.8,94.9
		C63.6,87.6,65.7,78.2,72,72c6.3-6.3,15.6-8.3,22.9-4.2l95.9,45.9l35.4-100.1C229.4,5.2,236.7,0,245,0c8.3,0,16.7,5.2,18.8,13.6
		l35.4,100.1l95.9-45.9c7.3-4.2,16.7-2.1,22.9,4.2c6.3,6.3,8.3,15.6,4.2,22.9l-45.9,95.9l100.1,35.4c8.3,3.1,13.6,10.4,13.6,18.8
		c0,8.3-5.2,16.7-13.6,18.8l-100.1,35.4l45.9,95.9c4.2,7.3,2.1,16.7-4.2,22.9c-6.3,6.3-15.6,7.3-22.9,4.2l-95.9-45.9l-35.4,100.1
		C261.7,484.8,253.3,490,245,490z M209.6,329.4c5.2,2.1,9.4,6.3,11.5,12.5l24,66.7l24-66.7c2.1-5.2,6.3-9.4,11.5-12.5
		c5.2-2.1,11.5-2.1,16.7,0l63.6,30.2L330.7,297c-2.1-5.2-3.1-11.5,0-16.7c2.1-5.2,6.3-9.4,12.5-11.5l66.7-24L343,221
		c-5.2-2.1-9.4-6.3-12.5-11.5c-2.1-5.2-2.1-11.5,0-16.7l30.2-63.6l-63.6,30.2c-5.2,2.1-11.5,3.1-16.7,0c-5.2-2.1-9.4-6.3-11.5-12.5
		l-24-65.7L221,148c-2.1,5.2-6.3,9.4-11.5,12.5c-5.2,2.1-11.5,2.1-16.7,0l-63.6-30.2l30.2,63.6c2.1,5.2,3.1,11.5,0,16.7
		c-2.1,5.2-6.3,9.4-12.5,11.5L81.3,245l66.7,24c5.2,2.1,9.4,6.3,12.5,11.5c2.1,5.2,2.1,11.5,0,16.7l-30.2,63.6l63.6-30.2
		C199.4,326.1,207.5,328.4,209.6,329.4z"/>
</g>
<g>
</g>
<g>
</g>
<g>
</g>
<g>
</g>
<g>
</g>
<g>
</g>
<g>
</g>
<g>
</g>
<g>
</g>
<g>
</g>
<g>
</g>
<g>
</g>
<g>
</g>
<g>
</g>
<g>
</g>
</svg>
