<?xml version="1.0" encoding="iso-8859-1"?>
<!-- Generator: Adobe Illustrator 19.0.0, SVG Export Plug-In . SVG Version: 6.00 Build 0)  -->
<svg version="1.1" id="Layer_1" xmlns="http://www.w3.org/2000/svg" xmlns:xlink="http://www.w3.org/1999/xlink" x="0px" y="0px"
	 viewBox="0 0 512 512" style="enable-background:new 0 0 512 512;" xml:space="preserve">
<g>
	<path style="fill:#BDBDC0;" d="M509.326,225.943L332.333,78.448c-4.814-4.012-12.124-0.589-12.124,5.678v83.557
		c0,1.961,0.779,3.84,2.165,5.227l27.884,27.884c4.656,4.656,12.618,1.359,12.618-5.227l0,0c0-6.35,7.479-9.744,12.258-5.563
		l53.918,47.179c1.347,1.179,3.077,1.828,4.867,1.828h70.674C511.507,239.013,514.637,230.368,509.326,225.943z"/>
	<path style="fill:#BDBDC0;" d="M2.674,225.943L179.667,78.448c4.814-4.012,12.124-0.589,12.124,5.678v83.557
		c0,1.961-0.779,3.84-2.165,5.227l-27.884,27.884c-4.656,4.656-12.618,1.359-12.618-5.227l0,0c0-6.35-7.479-9.744-12.258-5.563
		l-53.918,47.179c-1.347,1.179-3.077,1.828-4.867,1.828H7.406C0.493,239.013-2.637,230.368,2.674,225.943z"/>
</g>
<path style="fill:#E9E9EA;" d="M503.467,221.946H8.534c-4.713,0-8.533,3.821-8.533,8.533v196.267c0,4.713,3.821,8.533,8.533,8.533
	h190.993c3.232,0,6.187-1.826,7.633-4.717l41.209-82.418c1.572-3.145,13.693-3.145,15.265,0l41.209,82.418
	c1.445,2.891,4.4,4.717,7.633,4.717h190.992c4.713,0,8.533-3.821,8.533-8.533V230.479C512,225.767,508.179,221.946,503.467,221.946z
	"/>
<path style="fill:#FDB6CF;" d="M338.844,392.613c-3.232,0-6.187-1.826-7.632-4.717l-29.417-58.833
	c-0.597-1.196-1.237-2.361-1.916-3.493c-0.793-1.323-1.213-2.832-1.213-4.373v-48.05c0-4.713,3.821-8.533,8.533-8.533h153.6
	c4.713,0,8.533,3.821,8.533,8.533v110.933c0,4.713-3.821,8.533-8.533,8.533H338.844z"/>
<g>
	<polygon style="fill:#FD5E95;" points="363.2,392.613 404.267,392.613 469.334,327.546 469.334,286.479 	"/>
	<path style="fill:#FD5E95;" d="M307.2,264.613c-4.713,0-8.533,3.821-8.533,8.533v48.05c0,1.541,0.42,3.051,1.213,4.373
		c0.678,1.133,1.317,2.298,1.916,3.493l17.829,35.659l100.109-100.109H307.2z"/>
	<path style="fill:#FD5E95;" d="M419.2,392.613h41.6c4.713,0,8.533-3.821,8.533-8.533v-41.6L419.2,392.613z"/>
</g>
<path style="fill:#8DECF2;" d="M173.156,392.613c3.232,0,6.187-1.826,7.632-4.717l29.417-58.833
	c0.597-1.196,1.237-2.361,1.916-3.493c0.793-1.323,1.213-2.832,1.213-4.373v-48.05c0-4.713-3.821-8.533-8.533-8.533H51.2
	c-4.713,0-8.533,3.821-8.533,8.533v110.933c0,4.713,3.821,8.533,8.533,8.533H173.156z"/>
<g>
	<path style="fill:#45CAE0;" d="M204.8,264.613h-5.333l-128,128h44.267l97.6-97.6v-21.867
		C213.334,268.433,209.513,264.613,204.8,264.613z"/>
	<path style="fill:#45CAE0;" d="M51.2,264.613c-4.713,0-8.533,3.821-8.533,8.533v84.267l92.8-92.8H51.2z"/>
	<path style="fill:#45CAE0;" d="M130.667,392.613h42.49c3.232,0,6.187-1.826,7.633-4.717l29.417-58.833
		c0.597-1.196,1.237-2.361,1.916-3.493c0.793-1.323,1.213-2.832,1.213-4.373v-11.25L130.667,392.613z"/>
</g>
<g>
</g>
<g>
</g>
<g>
</g>
<g>
</g>
<g>
</g>
<g>
</g>
<g>
</g>
<g>
</g>
<g>
</g>
<g>
</g>
<g>
</g>
<g>
</g>
<g>
</g>
<g>
</g>
<g>
</g>
</svg>
