<?xml version="1.0" encoding="iso-8859-1"?>
<!-- Generator: Adobe Illustrator 19.0.0, SVG Export Plug-In . SVG Version: 6.00 Build 0)  -->
<svg version="1.1" id="Layer_1" xmlns="http://www.w3.org/2000/svg" xmlns:xlink="http://www.w3.org/1999/xlink" x="0px" y="0px"
	 viewBox="0 0 512 512" style="enable-background:new 0 0 512 512;" xml:space="preserve">
<g>
	<g>
		<g>
			<path d="M486.323,273.067h-59.657V25.677C426.667,11.52,415.147,0,400.99,0H25.677C11.52,0,0,11.52,0,25.677v460.646
				C0,500.48,11.52,512,25.677,512H460.8c28.237,0,51.2-22.963,51.2-51.2V298.743C512,284.587,500.48,273.067,486.323,273.067z
				 M42.667,51.2c0-4.71,3.823-8.533,8.533-8.533h170.667c4.71,0,8.533,3.823,8.533,8.533v170.667c0,4.71-3.823,8.533-8.533,8.533
				H51.2c-4.71,0-8.533-3.823-8.533-8.533V51.2z M324.267,366.933c4.71,0,8.533,3.823,8.533,8.533S328.977,384,324.267,384H213.333
				c-4.71,0-8.533-3.823-8.533-8.533s3.823-8.533,8.533-8.533H324.267z M221.867,341.333c0-4.71,3.823-8.533,8.533-8.533h42.667
				c4.71,0,8.533,3.823,8.533,8.533s-3.823,8.533-8.533,8.533H230.4C225.69,349.867,221.867,346.044,221.867,341.333z
				 M273.067,307.2h-59.733c-4.71,0-8.533-3.823-8.533-8.533s3.823-8.533,8.533-8.533h59.733c4.71,0,8.533,3.823,8.533,8.533
				S277.777,307.2,273.067,307.2z M162.133,452.267c0,4.71-3.823,8.533-8.533,8.533H51.2c-4.71,0-8.533-3.823-8.533-8.533v-34.133
				c0-4.71,3.823-8.533,8.533-8.533h102.4c4.71,0,8.533,3.823,8.533,8.533V452.267z M162.133,375.467
				c0,4.71-3.823,8.533-8.533,8.533H51.2c-4.71,0-8.533-3.823-8.533-8.533v-34.133c0-4.71,3.823-8.533,8.533-8.533h102.4
				c4.71,0,8.533,3.823,8.533,8.533V375.467z M162.133,298.667c0,4.71-3.823,8.533-8.533,8.533H51.2
				c-4.71,0-8.533-3.823-8.533-8.533v-34.133c0-4.71,3.823-8.533,8.533-8.533h102.4c4.71,0,8.533,3.823,8.533,8.533V298.667z
				 M375.467,460.8H238.933c-4.71,0-8.533-3.823-8.533-8.533c0-4.71,3.823-8.533,8.533-8.533h136.533
				c4.71,0,8.533,3.823,8.533,8.533C384,456.977,380.177,460.8,375.467,460.8z M375.467,426.667h-179.2
				c-4.71,0-8.533-3.823-8.533-8.533s3.823-8.533,8.533-8.533h179.2c4.71,0,8.533,3.823,8.533,8.533
				S380.177,426.667,375.467,426.667z M375.467,349.867H307.2c-4.71,0-8.533-3.823-8.533-8.533s3.823-8.533,8.533-8.533h68.267
				c4.71,0,8.533,3.823,8.533,8.533S380.177,349.867,375.467,349.867z M375.467,307.2H332.8c-4.71,0-8.533-3.823-8.533-8.533
				s3.823-8.533,8.533-8.533h42.667c4.71,0,8.533,3.823,8.533,8.533S380.177,307.2,375.467,307.2z M375.467,273.067h-128
				c-4.71,0-8.533-3.823-8.533-8.533c0-4.71,3.823-8.533,8.533-8.533h128c4.71,0,8.533,3.823,8.533,8.533
				C384,269.244,380.177,273.067,375.467,273.067z M384,221.867c0,4.71-3.823,8.533-8.533,8.533H264.533
				c-4.71,0-8.533-3.823-8.533-8.533v-85.333c0-4.71,3.823-8.533,8.533-8.533h110.933c4.71,0,8.533,3.823,8.533,8.533V221.867z
				 M256,102.4c0-4.71,3.823-8.533,8.533-8.533h59.733c4.71,0,8.533,3.823,8.533,8.533c0,4.71-3.823,8.533-8.533,8.533h-59.733
				C259.823,110.933,256,107.11,256,102.4z M375.467,68.267H264.533c-4.71,0-8.533-3.823-8.533-8.533s3.823-8.533,8.533-8.533
				h110.933c4.71,0,8.533,3.823,8.533,8.533S380.177,68.267,375.467,68.267z M494.933,460.8c0,18.825-15.309,34.133-34.133,34.133
				c-18.825,0-34.133-15.309-34.133-34.133V290.133h59.657c4.745,0,8.61,3.866,8.61,8.61V460.8z"/>
			<path d="M273.067,213.333h93.867v-68.267h-93.867V213.333z M307.2,170.667h25.6c4.71,0,8.533,3.823,8.533,8.533
				s-3.823,8.533-8.533,8.533h-25.6c-4.71,0-8.533-3.823-8.533-8.533S302.49,170.667,307.2,170.667z"/>
			<path d="M213.333,59.733h-153.6v153.6h153.6V59.733z M136.533,196.267c-32.939,0-59.733-26.795-59.733-59.733
				S103.595,76.8,136.533,76.8s59.733,26.795,59.733,59.733S169.472,196.267,136.533,196.267z"/>
			<rect x="59.733" y="426.667" width="85.333" height="17.067"/>
			<rect x="59.733" y="349.867" width="85.333" height="17.067"/>
			<path d="M128,136.533c0,23.586,5.376,37.879,8.533,41.89c3.157-4.011,8.533-18.304,8.533-41.89s-5.376-37.879-8.533-41.89
				C133.376,98.654,128,112.947,128,136.533z"/>
			<path d="M157.299,99.494c3.268,10.65,4.83,23.859,4.83,37.043c0,13.175-1.562,26.385-4.83,37.035
				c12.996-7.322,21.897-21.086,21.897-37.035C179.196,120.579,170.295,106.815,157.299,99.494z"/>
			<rect x="59.733" y="273.067" width="85.333" height="17.067"/>
			<path d="M93.867,136.533c0,15.949,8.9,29.722,21.896,37.043c-3.268-10.65-4.83-23.868-4.83-37.043s1.562-26.394,4.83-37.043
				C102.767,106.812,93.867,120.585,93.867,136.533z"/>
		</g>
	</g>
</g>
<g>
</g>
<g>
</g>
<g>
</g>
<g>
</g>
<g>
</g>
<g>
</g>
<g>
</g>
<g>
</g>
<g>
</g>
<g>
</g>
<g>
</g>
<g>
</g>
<g>
</g>
<g>
</g>
<g>
</g>
</svg>
