<?xml version="1.0" encoding="iso-8859-1"?>
<!-- Generator: Adobe Illustrator 19.0.0, SVG Export Plug-In . SVG Version: 6.00 Build 0)  -->
<svg version="1.1" id="Layer_1" xmlns="http://www.w3.org/2000/svg" xmlns:xlink="http://www.w3.org/1999/xlink" x="0px" y="0px"
	 viewBox="0 0 371.9 371.9" style="enable-background:new 0 0 371.9 371.9;" xml:space="preserve">
<g>
	<g>
		<path d="M185.948,211.685c-44.631,0-80.809,15.565-80.809,34.77c0,19.205,36.178,34.77,80.809,34.77s80.809-15.57,80.809-34.77
			S230.579,211.685,185.948,211.685z"/>
		<path d="M348.876,74.935c-3.379-4.029-8.156-6.252-13.45-6.252c-5.064,0-9.912,2.145-13.937,5.586
			c-1.07-1.019-2.324-1.797-3.922-2.033c-0.476-0.072-0.911-0.01-1.362,0.005c-3.057-2.304-6.738-3.558-10.68-3.558
			c-0.461,0-0.906,0.123-1.367,0.159c0.942-4.198,0.952-8.689-2.432-11.3c-5.622-4.347-13.86,1.587-18.022,4.731
			c-0.138-0.056-0.312-0.123-0.461-0.184c-0.22-0.276-0.456-0.584-0.66-0.829c1.905-4.792,5.489-14.223-0.072-18.519
			c-5.622-4.347-13.86,1.587-18.022,4.731c-0.43-0.179-0.937-0.379-1.434-0.573c-2.094-2.401-4.639-4.449-6.533-5.811
			c0.635-5.115,1.72-15.145-4.741-17.905c-6.533-2.79-13.01,5.028-16.246,9.124c-2.519-0.348-6.216-0.783-9.672-0.394
			c1.065-5.151,1.577-11.843-3.195-14.679c-6.108-3.63-13.563,3.261-17.316,6.886c-0.522-0.143-1.126-0.302-1.741-0.461
			c-0.205-0.399-0.415-0.819-0.609-1.172c2.79-4.337,8.12-12.902,3.492-18.191c-4.68-5.345-13.906-1.111-18.596,1.172
			c-4.347-2.888-13-8.315-18.35-3.635c-3.379,2.954-2.97,7.716-1.613,12.027c-0.875,0.389-1.7,0.778-2.406,1.116
			c-4.347-2.888-13-8.315-18.35-3.635c-2.499,2.186-2.883,5.361-2.386,8.612c-2.586-0.174-5.125-0.02-7.019,0.123
			c-2.98-4.285-9.021-12.518-15.718-10.143c-6.763,2.406-6.236,12.677-5.76,17.94c-2.022,1.362-4.864,3.425-7.122,5.888
			c-3.226-3.758-7.588-7.342-12.293-5.668c-6.764,2.406-6.236,12.677-5.76,17.94c-2.237,1.51-5.494,3.85-7.834,6.676
			c-3.144-3.441-7.214-6.405-11.581-4.854c-6.764,2.406-6.236,12.677-5.76,17.94c-1.408,0.947-3.2,2.253-4.925,3.773
			c-1.464,0.456-2.847,1.085-4.142,1.905c-2.944-2.842-6.533-4.941-10.348-3.584c-1.295,0.461-2.258,1.27-3.067,2.217
			c-2.268-0.865-4.618-1.428-7.035-1.428c-5.207,0-9.928,2.161-13.286,6.088c-3.804,4.439-5.473,10.711-4.634,17.3
			c0.01,0.292,0.036,0.589,0.092,0.886L67.42,366.923c0.512,2.877,3.016,4.977,5.944,4.977h225.193c2.929,0,5.432-2.099,5.944-4.982
			l48.292-271.923c0.195-0.666,0.312-1.126,0.399-1.597C354.426,86.419,352.855,79.686,348.876,74.935z M270.817,53.252
			c3.451,0,6.246,2.795,6.246,6.246c0,3.451-2.795,6.246-6.246,6.246c-3.451,0-6.246-2.796-6.246-6.246
			C264.57,56.047,267.366,53.252,270.817,53.252z M261.775,72.928c0.492,0,0.937,0.123,1.388,0.235
			c-1.019,0.789-2.007,1.633-2.903,2.596c-0.323-0.394-0.655-0.778-1.003-1.147c-0.225-0.241-0.502-0.415-0.737-0.64
			C259.486,73.363,260.556,72.928,261.775,72.928z M230.727,47.005c3.451,0,6.246,2.796,6.246,6.246
			c0,3.451-2.796,6.246-6.246,6.246c-3.451,0-6.246-2.795-6.246-6.246C224.481,49.801,227.276,47.005,230.727,47.005z
			 M236.595,71.069c-2.243,1.193-4.321,2.734-6.083,4.68c-0.348-0.415-0.707-0.814-1.085-1.203
			c-1.372-1.408-2.944-2.493-4.588-3.415c0.778-2.56,3.072-4.454,5.883-4.454C233.518,66.681,235.796,68.545,236.595,71.069z
			 M207.764,38.235c3.451,0,6.246,2.795,6.246,6.246c0,3.451-2.796,6.246-6.246,6.246c-3.451,0-6.246-2.796-6.246-6.246
			C201.518,41.03,204.313,38.235,207.764,38.235z M195.271,59.232c3.451,0,6.246,2.796,6.246,6.246c0,3.282-2.56,5.898-5.781,6.149
			c-1.654-1.024-3.405-1.864-5.294-2.34c-0.84-1.065-1.418-2.35-1.418-3.809C189.03,62.027,191.825,59.232,195.271,59.232z
			 M179.701,24.682c3.451,0,6.246,2.796,6.246,6.246s-2.796,6.246-6.246,6.246s-6.246-2.796-6.246-6.246
			S176.256,24.682,179.701,24.682z M173.455,66.681c2.437,0,4.495,1.434,5.524,3.471c-2.985,1.219-5.688,3.098-7.864,5.622
			c-1.137-1.295-2.432-2.386-3.804-3.359C167.587,69.216,170.188,66.681,173.455,66.681z M160.256,49.56
			c3.451,0,6.246,2.795,6.246,6.246c0,3.451-2.796,6.246-6.246,6.246c-3.451,0-6.246-2.796-6.246-6.246
			C154.009,52.356,156.81,49.56,160.256,49.56z M142.187,28.271c3.451,0,6.246,2.796,6.246,6.246s-2.796,6.246-6.246,6.246
			c-3.451,0-6.246-2.796-6.246-6.246S138.736,28.271,142.187,28.271z M133.621,65.473c3.451,0,6.246,2.795,6.246,6.246
			c0,0.809-0.169,1.567-0.456,2.263c-3.205-2.826-7.076-4.623-11.29-5.074C129.157,66.896,131.2,65.473,133.621,65.473z
			 M114.816,40.759c3.451,0,6.246,2.795,6.246,6.246c0,3.451-2.796,6.246-6.246,6.246c-3.451,0-6.246-2.795-6.246-6.246
			C108.569,43.554,111.365,40.759,114.816,40.759z M98.339,65.473c3.016,0,5.412,2.181,5.996,5.023
			c-2.539-1.152-5.274-1.813-8.11-1.813c-1.188,0-2.345,0.138-3.482,0.364C93.757,66.948,95.856,65.473,98.339,65.473z
			 M318.376,91.897h-0.041L278.4,365.869h-20.49l10.24-90.286c-6.656,4.91-14.945,9.18-24.468,12.621l-6.287,77.665h-20.49
			l3.471-71.465c-7.286,1.352-14.92,2.319-22.881,2.76l-1.111,68.705h-20.49l-1.116-68.803c-7.967-0.497-15.621-1.49-22.892-2.898
			l3.487,71.7h-20.49l-6.328-78.162c-9.62-3.594-17.966-8.028-24.545-13.138l10.353,91.295H93.87L53.908,91.718
			c0-0.005,0-0.005,0-0.005c-0.532-4.675,0.548-8.919,2.775-11.996c0.051-0.067,0.118-0.118,0.164-0.184
			c0.517-0.686,1.08-1.331,1.71-1.889c0.184-0.164,0.415-0.271,0.609-0.425c0.532-0.415,1.06-0.829,1.654-1.147
			c0.384-0.205,0.824-0.312,1.234-0.476c0.456-0.179,0.886-0.404,1.367-0.522c0.922-0.23,1.889-0.348,2.903-0.348
			c8.125,0,15.575,7.731,16.86,17.178h0.077c-0.102-1.111-0.097-2.191-0.021-3.246c0.016-0.217,0.048-0.426,0.08-0.635
			c-0.07,0.726-0.146,2.14,0.012,3.882h-0.041l14.925,131.63c5.903-6.016,14.024-11.346,23.864-15.708l-9.4-116.101
			c0.005,0.061-0.01,0.118-0.005,0.179h-0.072c-0.553-9.441,5.396-17.178,13.517-17.178c3.092,0,6.011,1.132,8.484,3.046
			c0.922,0.712,1.766,1.562,2.55,2.478c0.21,0.246,0.394,0.517,0.594,0.778c0.543,0.712,1.044,1.464,1.495,2.263
			c0.195,0.353,0.384,0.707,0.563,1.07c0.394,0.809,0.722,1.659,1.009,2.534c0.123,0.369,0.266,0.727,0.369,1.106
			c0.338,1.26,0.589,2.555,0.686,3.901h0.077c-0.251-9.441-0.102-9.411,0.143,0h-0.041l5.238,107.761
			c8.105-1.813,16.788-3.041,25.846-3.681l-1.69-104.259c0,0.061-0.015,0.118-0.015,0.179h-0.077
			c-0.005-0.107-0.031-0.205-0.036-0.312v-0.01c0.102-4.644,1.741-8.853,4.357-11.904c0.056-0.067,0.123-0.113,0.184-0.179
			c0.604-0.686,1.249-1.321,1.951-1.879c0.22-0.174,0.471-0.287,0.701-0.451c0.568-0.399,1.137-0.804,1.751-1.111
			c0.44-0.22,0.922-0.338,1.382-0.507c0.445-0.164,0.875-0.374,1.336-0.486c0.937-0.225,1.905-0.343,2.903-0.343
			c0.015,0,0.026-0.005,0.036-0.005c4.06,0,7.706,1.935,10.342,5.048c1.316,1.556,2.386,3.41,3.123,5.463
			c0.737,2.053,1.157,4.306,1.172,6.666h0.077c0.363-9.441,0.579-9.4,0.215,0h-0.041l-1.685,103.982
			c9.047,0.579,17.736,1.751,25.861,3.497l5.233-107.658c-0.005,0.061-0.02,0.118-0.026,0.179h-0.077
			c0.005-0.225-0.036-0.43-0.036-0.65c0.466-4.557,2.391-8.678,5.181-11.668c0.082-0.087,0.179-0.154,0.261-0.241
			c0.625-0.64,1.275-1.244,1.976-1.766c0.246-0.184,0.522-0.312,0.778-0.481c0.568-0.374,1.137-0.758,1.741-1.05
			c0.476-0.225,0.983-0.358,1.48-0.527c0.43-0.148,0.84-0.343,1.28-0.451c0.957-0.225,1.94-0.348,2.944-0.348
			c1.003,0,1.976,0.123,2.903,0.348c0.773,0.189,1.5,0.492,2.217,0.824c0.138,0.061,0.292,0.092,0.425,0.159
			c1.664,0.85,3.133,2.079,4.347,3.589c1.024,1.275,1.812,2.78,2.427,4.408c0.42,1.111,0.727,2.299,0.942,3.523
			c0.015,0.108,0.046,0.21,0.067,0.317c0.2,1.285,0.282,2.616,0.2,4.004h0.077c0.241-2.34,0.87-4.572,1.797-6.61
			c1.495-3.297,3.799-6.042,6.528-7.921c0.947-0.65,1.956-1.167,2.995-1.592c0.466-0.189,0.937-0.363,1.418-0.502
			c0.323-0.092,0.64-0.179,0.968-0.246c0.85-0.174,1.71-0.302,2.591-0.302c0.051,0,0.092,0.015,0.143,0.015
			c-8.059,0.097-15.181,7.777-16.154,17.157h-0.041l-9.344,115.364c9.743,4.178,17.9,9.293,23.951,15.083l14.812-130.621
			c-0.01,0.061-0.031,0.118-0.041,0.179h-0.077c0.031-0.338-0.005-0.655,0.005-0.988c0.41-2.227,1.162-4.337,2.171-6.262
			c0.015-0.031,0.031-0.061,0.046-0.092c0.466-0.876,0.998-1.705,1.567-2.493c0.077-0.107,0.148-0.215,0.225-0.317
			c0.502-0.671,1.055-1.28,1.623-1.869c0.169-0.174,0.323-0.364,0.497-0.527c0.456-0.44,0.957-0.819,1.444-1.208
			c1.633-1.27,3.42-2.243,5.315-2.795c1.219-0.358,2.463-0.614,3.743-0.614c1.557,0,2.97,0.358,4.301,0.886
			c2.657,1.05,4.803,3.062,6.252,5.678c0.102,0.189,0.225,0.364,0.317,0.563c0.225,0.451,0.404,0.937,0.584,1.423
			c0.154,0.42,0.307,0.845,0.43,1.29c0.118,0.42,0.22,0.845,0.307,1.28c0.118,0.599,0.195,1.213,0.251,1.838
			c0.031,0.358,0.082,0.707,0.092,1.07c0.036,1.014,0.01,2.053-0.123,3.123c0,0.01,0,0.015,0,0.026h0.077
			c0.21-1.249,0.532-2.468,0.947-3.645C318.807,89.266,318.622,90.423,318.376,91.897z"/>
	</g>
</g>
<g>
</g>
<g>
</g>
<g>
</g>
<g>
</g>
<g>
</g>
<g>
</g>
<g>
</g>
<g>
</g>
<g>
</g>
<g>
</g>
<g>
</g>
<g>
</g>
<g>
</g>
<g>
</g>
<g>
</g>
</svg>
